<?xml version="1.0" encoding="utf-8"?>
<!-- Generator: Adobe Illustrator 25.3.1, SVG Export Plug-In . SVG Version: 6.00 Build 0)  -->
<svg version="1.1" id="Layer_1" xmlns="http://www.w3.org/2000/svg" xmlns:xlink="http://www.w3.org/1999/xlink" x="0px" y="0px"
	 viewBox="0 0 464.4 464.6" style="enable-background:new 0 0 464.4 464.6;" xml:space="preserve">
<path d="M369.6,256.6c-11.2,3-22.8,4.5-34.5,4.5c-73.1,0-132.7-59.5-132.7-132.7c0-11.7,1.5-23.3,4.6-34.5c0.9-3.4-0.1-7-2.5-9.5
	s-6-3.5-9.5-2.6C128.7,99.7,82.4,160.1,82.4,229c0,83.9,68.3,152.3,152.3,152.3c68.8,0,129.3-46.3,147-112.7c0.9-3.4-0.1-7-2.6-9.5
	C376.6,256.6,373.1,255.7,369.6,256.6L369.6,256.6z M234.7,361.7C161.5,361.7,102,302.1,102,229c0-54.4,33.2-102.8,82.5-122.9
	c-1.1,7.4-1.6,14.8-1.6,22.3c0,83.9,68.3,152.3,152.3,152.3c7.5,0,15-0.6,22.3-1.6C337.5,328.5,289.1,361.7,234.7,361.7L234.7,361.7
	z"/>
</svg>
